<?xml version="1.0" encoding="utf-8"?>
<!-- Generator: Adobe Illustrator 23.0.1, SVG Export Plug-In . SVG Version: 6.00 Build 0)  -->
<svg version="1.1" xmlns="http://www.w3.org/2000/svg" xmlns:xlink="http://www.w3.org/1999/xlink" x="0px" y="0px"
	 viewBox="0 0 150 150" style="enable-background:new 0 0 150 150;" xml:space="preserve">
<style type="text/css">
	.st0{fill:#FFFFFF;}
	.st1{fill:#f7f7f7;}
	.st2{fill:#eeeeee;}
	.st3{fill:#e1e1e1;}
</style>
<g id="Layer_5">
</g>
<g id="Layer_1">
	<g>
		<polygon class="st0" points="86.9,51.3 86.9,47.3 86.9,43.4 86.9,39.4 86.9,35.5 86.9,31.5 82.9,31.5 82.9,27.6 82.9,23.6 
			79,23.6 79,19.7 79,15.7 75,15.7 75,11.8 71,11.8 71,15.7 67.1,15.7 67.1,19.7 67.1,23.6 63.1,23.6 63.1,27.6 63.1,31.5 
			59.2,31.5 59.2,35.5 59.2,39.4 59.2,43.4 59.2,47.3 59.2,51.3 55.2,51.3 55.2,55.2 55.2,59.2 55.2,63.1 55.2,67.1 55.2,71 
			55.2,75 55.2,79 55.2,82.9 55.2,86.9 55.2,90.8 59.2,90.8 59.2,94.8 59.2,98.7 63.1,98.7 63.1,102.7 67.1,102.7 71,102.7 
			71,106.6 75,106.6 79,106.6 79,110.6 82.9,110.6 82.9,114.5 86.9,114.5 86.9,110.6 86.9,106.6 90.8,106.6 90.8,102.7 90.8,98.7 
			90.8,94.8 90.8,90.8 90.8,86.9 90.8,82.9 90.8,79 90.8,75 90.8,71 90.8,67.1 90.8,63.1 90.8,59.2 90.8,55.2 90.8,51.3 		"/>
		<g>
			<g>
				<rect x="71" y="11.8" class="st1" width="4" height="4"/>
				<polygon class="st1" points="71,15.7 67.1,15.7 67.1,19.7 67.1,23.6 71,23.6 71,19.7 				"/>
				<polygon class="st1" points="75,23.6 79,23.6 79,19.7 79,15.7 75,15.7 75,19.7 				"/>
				<rect x="71" y="82.9" class="st1" width="4" height="4"/>
				<rect x="59.2" y="63.1" class="st1" width="4" height="4"/>
				<rect x="79" y="63.1" class="st1" width="4" height="4"/>
				<rect x="63.1" y="71" class="st1" width="4" height="4"/>
				<rect x="67.1" y="67.1" class="st1" width="4" height="4"/>
				<rect x="79" y="23.6" class="st1" width="4" height="4"/>
				<rect x="71" y="35.5" class="st1" width="4" height="4"/>
				<rect x="79" y="75" class="st1" width="4" height="4"/>
				<polygon class="st1" points="79,59.2 79,55.2 75,55.2 71,55.2 71,59.2 75,59.2 75,63.1 79,63.1 				"/>
				<rect x="82.9" y="47.3" class="st1" width="4" height="4"/>
				<rect x="67.1" y="27.6" class="st1" width="4" height="4"/>
				<rect x="71" y="23.6" class="st1" width="4" height="4"/>
				<polygon class="st1" points="79,31.5 79,27.6 75,27.6 75,31.5 75,35.5 79,35.5 				"/>
				<rect x="82.9" y="31.5" class="st1" width="4" height="4"/>
				<rect x="79" y="35.5" class="st1" width="4" height="4"/>
				<rect x="63.1" y="35.5" class="st1" width="4" height="4"/>
				<rect x="67.1" y="39.4" class="st1" width="4" height="4"/>
				<rect x="63.1" y="43.4" class="st1" width="4" height="4"/>
				<rect x="71" y="47.3" class="st1" width="4" height="4"/>
				<polygon class="st1" points="79,43.4 79,39.4 75,39.4 75,43.4 75,47.3 79,47.3 				"/>
				<rect x="82.9" y="39.4" class="st1" width="4" height="4"/>
				<rect x="79" y="51.3" class="st1" width="4" height="4"/>
				<rect x="55.2" y="51.3" class="st1" width="4" height="4"/>
				<rect x="63.1" y="59.2" class="st1" width="4" height="4"/>
				<rect x="67.1" y="51.3" class="st1" width="4" height="4"/>
				<rect x="71" y="63.1" class="st1" width="4" height="4"/>
				<rect x="82.9" y="59.2" class="st1" width="4" height="4"/>
				<rect x="86.9" y="55.2" class="st1" width="4" height="4"/>
				<rect x="86.9" y="63.1" class="st1" width="4" height="4"/>
				<rect x="82.9" y="71" class="st1" width="4" height="4"/>
				<rect x="75" y="67.1" class="st1" width="4" height="4"/>
				<rect x="71" y="71" class="st1" width="4" height="4"/>
				<rect x="67.1" y="75" class="st1" width="4" height="4"/>
				<rect x="75" y="79" class="st1" width="4" height="4"/>
				<rect x="82.9" y="79" class="st1" width="4" height="4"/>
				<rect x="79" y="82.9" class="st1" width="4" height="4"/>
				<rect x="79" y="90.8" class="st1" width="4" height="4"/>
			</g>
			<g>
				<rect x="75" y="23.6" class="st0" width="4" height="4"/>
				<rect x="71" y="67.1" class="st0" width="4" height="4"/>
				<polygon class="st0" points="90.8,55.2 90.8,51.3 86.9,51.3 82.9,51.3 82.9,55.2 79,55.2 79,59.2 79,63.1 82.9,63.1 82.9,59.2 
					86.9,59.2 86.9,55.2 				"/>
				<rect x="86.9" y="59.2" class="st0" width="4" height="4"/>
				<rect x="67.1" y="71" class="st0" width="4" height="4"/>
				<rect x="79" y="79" class="st0" width="4" height="4"/>
				<polygon class="st0" points="75,19.7 75,15.7 71,15.7 71,19.7 71,23.6 75,23.6 				"/>
				<polygon class="st0" points="79,35.5 82.9,35.5 82.9,31.5 82.9,27.6 79,27.6 79,31.5 				"/>
				<polygon class="st0" points="79,43.4 79,47.3 75,47.3 75,51.3 71,51.3 71,55.2 75,55.2 79,55.2 79,51.3 82.9,51.3 82.9,47.3 
					86.9,47.3 86.9,43.4 82.9,43.4 82.9,39.4 79,39.4 				"/>
				<path class="st0" d="M82.9,67.1h-4v4h-4v4h-4v4h-4v-4h-4v-4h4v-4h4v-4h4v-4h-4v-4h-4v-4h4v-4h4v-4v-4h-4v4h-4v4h-4v-4h4v-4h-4
					v-4h4v4h4v-4h4v-4v-4h-4v4h-4v-4h4v-4h-4h-4v4v4h-4v4v4v4v4v4v4h-4v4v4v4v4v4v4v4v4v4h4v4v4h4v4h4h4v4h4h4v4h4v4h4v-4v-4h4v-4
					v-4v-4v-4v-4v-4v-4v-4v-4v-4h-4v-4h-4V67.1z M59.2,67.1v-4h4v-4h4v4h-4v4H59.2z M82.9,94.8h-4v-4h4V94.8z M86.9,75h-4v4h4v4h-4
					v4h-4v-4h-4v4h-4v-4h4v-4h4v-4h4v-4h4V75z"/>
				<rect x="75" y="63.1" class="st0" width="4" height="4"/>
				<rect x="75" y="35.5" class="st0" width="4" height="4"/>
				<rect x="82.9" y="35.5" class="st0" width="4" height="4"/>
			</g>
		</g>
		<polygon class="st2" points="110.6,67.1 106.6,67.1 102.7,67.1 102.7,71 98.7,71 98.7,67.1 98.7,63.1 102.7,63.1 102.7,59.2 
			106.6,59.2 106.6,55.2 110.6,55.2 110.6,51.3 110.6,47.3 106.6,47.3 106.6,51.3 102.7,51.3 98.7,51.3 98.7,55.2 94.8,55.2 
			94.8,59.2 90.8,59.2 90.8,63.1 90.8,67.1 90.8,71 90.8,75 90.8,79 90.8,82.9 90.8,86.9 90.8,90.8 90.8,94.8 86.9,94.8 86.9,98.7 
			86.9,102.7 82.9,102.7 82.9,98.7 79,98.7 79,94.8 75,94.8 71,94.8 71,90.8 67.1,90.8 63.1,90.8 63.1,86.9 59.2,86.9 59.2,82.9 
			59.2,79 55.2,79 55.2,75 55.2,71 55.2,67.1 55.2,63.1 55.2,59.2 51.3,59.2 51.3,55.2 47.3,55.2 43.4,55.2 43.4,51.3 39.4,51.3 
			39.4,55.2 39.4,59.2 43.4,59.2 43.4,63.1 43.4,67.1 47.3,67.1 47.3,71 51.3,71 51.3,75 47.3,75 43.4,75 43.4,71 39.4,71 35.5,71 
			35.5,75 39.4,75 39.4,79 43.4,79 43.4,82.9 43.4,86.9 47.3,86.9 47.3,90.8 47.3,94.8 51.3,94.8 51.3,98.7 51.3,102.7 51.3,106.6 
			55.2,106.6 55.2,110.6 55.2,114.5 59.2,114.5 59.2,118.5 63.1,118.5 63.1,122.4 67.1,122.4 67.1,126.4 67.1,130.3 67.1,134.3 
			71,134.3 71,138.2 75,138.2 75,134.3 79,134.3 79,130.3 79,126.4 79,122.4 82.9,122.4 82.9,118.5 86.9,118.5 86.9,114.5 
			90.8,114.5 90.8,110.6 90.8,106.6 94.8,106.6 94.8,102.7 94.8,98.7 98.7,98.7 98.7,94.8 98.7,90.8 98.7,86.9 102.7,86.9 
			102.7,82.9 102.7,79 106.6,79 110.6,79 110.6,75 110.6,71 114.5,71 114.5,67.1 		"/>
		<g>
			<g>
				<polygon class="st3" points="75,126.4 71,126.4 71,122.4 67.1,122.4 67.1,126.4 67.1,130.3 67.1,134.3 71,134.3 71,138.2 
					75,138.2 75,134.3 79,134.3 79,130.3 79,126.4 79,122.4 75,122.4 				"/>
				<rect x="75" y="114.5" class="st3" width="4" height="4"/>
				<polygon class="st3" points="71,118.5 71,114.5 67.1,114.5 63.1,114.5 63.1,118.5 63.1,122.4 67.1,122.4 67.1,118.5 				"/>
				<rect x="79" y="110.6" class="st3" width="4" height="4"/>
				<polygon class="st3" points="106.6,75 106.6,79 110.6,79 110.6,75 110.6,71 106.6,71 				"/>
				<polygon class="st3" points="94.8,63.1 94.8,67.1 98.7,67.1 98.7,63.1 98.7,59.2 94.8,59.2 				"/>
				<polygon class="st3" points="98.7,55.2 98.7,59.2 102.7,59.2 106.6,59.2 106.6,55.2 102.7,55.2 				"/>
				<polygon class="st3" points="90.8,71 90.8,75 94.8,75 94.8,71 94.8,67.1 90.8,67.1 				"/>
				<rect x="98.7" y="82.9" class="st3" width="4" height="4"/>
				<rect x="94.8" y="94.8" class="st3" width="4" height="4"/>
				<rect x="90.8" y="102.7" class="st3" width="4" height="4"/>
				<rect x="86.9" y="110.6" class="st3" width="4" height="4"/>
				<rect x="79" y="118.5" class="st3" width="4" height="4"/>
				<polygon class="st3" points="59.2,110.6 59.2,106.6 55.2,106.6 55.2,110.6 55.2,114.5 59.2,114.5 63.1,114.5 63.1,110.6 				"/>
				<rect x="51.3" y="102.7" class="st3" width="4" height="4"/>
				<polygon class="st3" points="47.3,79 43.4,79 43.4,82.9 43.4,86.9 47.3,86.9 51.3,86.9 51.3,82.9 47.3,82.9 				"/>
				<rect x="39.4" y="75" class="st3" width="4" height="4"/>
				<rect x="47.3" y="67.1" class="st3" width="4" height="4"/>
				<polygon class="st3" points="43.4,67.1 47.3,67.1 47.3,63.1 47.3,59.2 43.4,59.2 43.4,63.1 				"/>
				<rect x="51.3" y="79" class="st3" width="4" height="4"/>
				<polygon class="st3" points="51.3,90.8 47.3,90.8 47.3,94.8 51.3,94.8 55.2,94.8 55.2,90.8 				"/>
				<rect x="51.3" y="71" class="st3" width="4" height="4"/>
				<rect x="51.3" y="63.1" class="st3" width="4" height="4"/>
				<rect x="39.4" y="55.2" class="st3" width="4" height="4"/>
				<polygon class="st3" points="90.8,79 90.8,82.9 90.8,86.9 90.8,90.8 90.8,94.8 94.8,94.8 94.8,90.8 94.8,86.9 94.8,82.9 
					98.7,82.9 98.7,79 102.7,79 102.7,75 102.7,71 98.7,71 98.7,75 94.8,75 94.8,79 				"/>
				<rect x="59.2" y="86.9" class="st3" width="4" height="4"/>
				<rect x="55.2" y="82.9" class="st3" width="4" height="4"/>
				<polygon class="st3" points="79,98.7 79,94.8 75,94.8 71,94.8 71,98.7 75,98.7 				"/>
				<rect x="86.9" y="94.8" class="st3" width="4" height="4"/>
				<rect x="79" y="98.7" class="st3" width="4" height="4"/>
				<rect x="82.9" y="106.6" class="st3" width="4" height="4"/>
				<polygon class="st3" points="67.1,106.6 71,106.6 71,110.6 75,110.6 75,106.6 75,102.7 71,102.7 71,98.7 67.1,98.7 67.1,102.7 
					63.1,102.7 63.1,106.6 				"/>
				<rect x="55.2" y="94.8" class="st3" width="4" height="4"/>
				<rect x="59.2" y="98.7" class="st3" width="4" height="4"/>
				<polygon class="st3" points="67.1,90.8 63.1,90.8 63.1,94.8 67.1,94.8 71,94.8 71,90.8 				"/>
				<rect x="106.6" y="51.3" class="st3" width="4" height="4"/>
			</g>
			<g>
				<rect x="59.2" y="114.5" class="st2" width="4" height="4"/>
				<polygon class="st2" points="82.9,114.5 79,114.5 79,118.5 82.9,118.5 86.9,118.5 86.9,114.5 86.9,110.6 82.9,110.6 				"/>
				<polygon class="st2" points="90.8,98.7 86.9,98.7 86.9,102.7 82.9,102.7 79,102.7 79,98.7 75,98.7 71,98.7 71,102.7 75,102.7 
					75,106.6 75,110.6 71,110.6 71,106.6 67.1,106.6 63.1,106.6 63.1,102.7 59.2,102.7 59.2,98.7 55.2,98.7 55.2,94.8 51.3,94.8 
					51.3,98.7 51.3,102.7 55.2,102.7 55.2,106.6 59.2,106.6 59.2,110.6 63.1,110.6 63.1,114.5 67.1,114.5 71,114.5 71,118.5 
					67.1,118.5 67.1,122.4 71,122.4 71,126.4 75,126.4 75,122.4 79,122.4 79,118.5 75,118.5 75,114.5 79,114.5 79,110.6 82.9,110.6 
					82.9,106.6 86.9,106.6 86.9,110.6 90.8,110.6 90.8,106.6 90.8,102.7 94.8,102.7 94.8,98.7 94.8,94.8 90.8,94.8 				"/>
				<polygon class="st2" points="94.8,86.9 94.8,90.8 94.8,94.8 98.7,94.8 98.7,90.8 98.7,86.9 98.7,82.9 94.8,82.9 				"/>
				<rect x="98.7" y="79" class="st2" width="4" height="4"/>
				<polygon class="st2" points="94.8,59.2 90.8,59.2 90.8,63.1 90.8,67.1 94.8,67.1 94.8,63.1 				"/>
				<rect x="94.8" y="55.2" class="st2" width="4" height="4"/>
				<polygon class="st2" points="106.6,55.2 106.6,51.3 102.7,51.3 98.7,51.3 98.7,55.2 102.7,55.2 				"/>
				<polygon class="st2" points="98.7,71 98.7,67.1 94.8,67.1 94.8,71 94.8,75 98.7,75 				"/>
				<polygon class="st2" points="39.4,71 35.5,71 35.5,75 39.4,75 43.4,75 43.4,71 				"/>
				<polygon class="st2" points="55.2,79 55.2,75 51.3,75 47.3,75 43.4,75 43.4,79 47.3,79 47.3,82.9 51.3,82.9 51.3,79 				"/>
				<rect x="51.3" y="67.1" class="st2" width="4" height="4"/>
				<polygon class="st2" points="47.3,59.2 47.3,63.1 47.3,67.1 51.3,67.1 51.3,63.1 55.2,63.1 55.2,59.2 51.3,59.2 51.3,55.2 
					47.3,55.2 43.4,55.2 43.4,59.2 				"/>
				<rect x="39.4" y="51.3" class="st2" width="4" height="4"/>
				<rect x="90.8" y="75" class="st2" width="4" height="4"/>
				<polygon class="st2" points="110.6,67.1 106.6,67.1 102.7,67.1 102.7,71 102.7,75 102.7,79 106.6,79 106.6,75 106.6,71 
					110.6,71 114.5,71 114.5,67.1 				"/>
				<rect x="55.2" y="79" class="st2" width="4" height="4"/>
				<polygon class="st2" points="59.2,98.7 63.1,98.7 63.1,102.7 67.1,102.7 67.1,98.7 71,98.7 71,94.8 67.1,94.8 63.1,94.8 
					63.1,90.8 59.2,90.8 59.2,86.9 55.2,86.9 55.2,82.9 51.3,82.9 51.3,86.9 47.3,86.9 47.3,90.8 51.3,90.8 55.2,90.8 55.2,94.8 
					59.2,94.8 				"/>
				<rect x="98.7" y="59.2" class="st2" width="4" height="4"/>
				<rect x="106.6" y="47.3" class="st2" width="4" height="4"/>
			</g>
		</g>
	</g>
</g>
</svg>
